<?xml version="1.0" encoding="UTF-8"?>
<svg id="_图层_1" data-name="图层 1" xmlns="http://www.w3.org/2000/svg" viewBox="0 0 235 196">
  <defs>
    <style>
      .cls-1 {
        fill: #5a2b1b;
      }

      .cls-2 {
        fill: none;
      }
    </style>
  </defs>
  <path class="cls-2" d="m0,0h235v196H0V0Zm88.91,169.15c.18.35.44.64.79.88,6.29,4.37,13.14,7.96,20.54,10.76.79.29,1.56.29,2.32,0,10.2-3.89,19.1-9.05,26.69-15.48,5.82-4.92,10.74-10.59,14.76-17,.95-1.53,2.19-2.95,3.7-4.27,16.39-14.34,27.46-32.08,33.19-53.23,6.75-24.92,5.81-49.9-2.82-74.94-.43-1.22-1.31-1.89-2.64-2-25.7-2.19-50.2,3.03-73.49,15.68-.28.15-.62.16-.9.03-.71-.33-1.4-.68-2.07-1.03-23.73-12.5-48.87-17.27-75.42-14.3-1.37.15-2.27.85-2.69,2.09-9.24,27.17-9.43,54.27-.58,81.28,1.46,4.46,3.45,9.22,5.97,14.27,7.81,15.67,18.25,27.94,31.3,36.8,1.65,1.12,3.08,2.47,4.29,4.06,4.38,5.75,9.9,11.17,16.57,16.28.05.03.11.06.16.07.09.02.17.03.26.02.03,0,.06,0,.07.03Z"/>
  <path class="cls-1" d="m88.84,169.12c-.09,0-.17,0-.26-.02-.05-.01-.11-.04-.16-.07-6.67-5.11-12.19-10.53-16.57-16.28-1.21-1.59-2.64-2.94-4.29-4.06-13.05-8.86-23.49-21.13-31.3-36.8-2.52-5.05-4.51-9.81-5.97-14.27-8.85-27.01-8.66-54.11.58-81.28.42-1.24,1.32-1.94,2.69-2.09,26.55-2.97,51.69,1.8,75.42,14.3.67.35,1.36.7,2.07,1.03.28.13.62.12.9-.03,23.29-12.65,47.79-17.87,73.49-15.68,1.33.11,2.21.78,2.64,2,8.63,25.04,9.57,50.02,2.82,74.94-5.73,21.15-16.8,38.89-33.19,53.23-1.51,1.32-2.75,2.74-3.7,4.27-4.02,6.41-8.94,12.08-14.76,17-7.59,6.43-16.49,11.59-26.69,15.48-.76.29-1.53.29-2.32,0-7.4-2.8-14.25-6.39-20.54-10.76-.35-.24-.61-.53-.79-.88-.01-.03-.04-.04-.07-.03Zm-40.72-50.47c3.7,5.81,8.31,11.43,13.37,16.15.56.52.72.42.48-.31-3.96-12.09-5.14-24.17-2.73-36.81,5.03-26.34,22.15-48.5,44.51-63.12.52-.34.5-.65-.05-.93-20.93-10.51-42.89-14.81-65.86-12.88-.66.05-1.23.5-1.43,1.14-6.66,21.24-7.39,42.67-2.19,64.3,2.74,11.41,7.37,22.23,13.9,32.46Zm121.51,1.72c.16.01.28-.04.36-.16,1.67-2.68,3.4-5.63,5.21-8.84,3.15-5.6,5.69-11.51,7.62-17.74,7.48-24.09,7.35-48.3-.4-72.62-.08-.28-.33-.47-.62-.49-19.23-1.15-37.83,2.13-55.8,9.86-2.5,1.07-4.93,2.21-7.3,3.41-.14.07-.2.25-.13.38.02.04.05.08.09.11,17.75,12.02,32.19,27.76,40.07,47.2,4.39,10.81,6.39,21.57,5.99,32.28-.18,4.75-.93,9.88-2.26,15.41-.19.8-.03.88.48.23l6.52-8.26s.04-.09,0-.14c-.07-.09-.11-.18-.13-.29-.05-.25.05-.36.3-.34Zm-30.85,27.7c2.65-1.17,5.39-2.73,8.22-4.7,1.25-.87,2.86-1.72,3.66-3.2,2.09-3.9,3.81-8.2,5.16-12.89.39-1.37.88-3.76,1.45-7.16.36-2.17.51-4.54.45-7.09-.1-4.2.16-8.23-.62-12.41-2.13-11.51-6.38-22.01-12.75-31.51-8.15-12.15-18.91-22.41-32.3-30.77-.41-.26-.83-.26-1.24,0-12.87,7.78-23.5,17.75-31.91,29.9-1.07,1.55-2,3.04-2.77,4.46-.81,1.47-1.65,2.89-2.52,4.25-.23.36-.37.75-.42,1.18-.03.25-.12.47-.25.68-.67,1.07-1.3,2.25-1.87,3.56-1.7,3.88-2.99,7.52-3.86,10.91-.06.24-.12.48-.18.71-2.81,11.65-2.69,23.23.36,34.76.23.86.51,1.71.86,2.54.35.84.66,1.68.95,2.53.39,1.15.88,2.32,1.48,3.51.95,1.88,1.96,3.78,3.01,5.71.83,1.5,1.99,2.68,3.48,3.54,2.65,1.52,5.24,2.73,7.79,3.62,1.08.37,1.84,1.2,2.93,1.39,1.74.3,3.36.96,5.01,1.56.87.31,1.8.52,2.8.63,1.68.18,3.34.41,4.99.7,1.6.27,3.21.45,4.83.53,6,.31,12.01-.15,18.02-1.4,2.05-.43,4.06-1,6.03-1.71,1.92-.7,3.9-1.37,5.94-2.02.61-.2,1.17-.49,1.69-.87.5-.37,1.03-.68,1.58-.93Zm-6.43,13.82c2.21-1.61,4.2-3.33,5.97-5.15.54-.55.44-.72-.3-.49-2.38.73-4.84,2.07-7.29,2.59-.8.17-1.61.36-2.43.59-4.09,1.12-8.78,1.95-14.05,2.5-4.72.49-10.3.14-16.75-1.03-.37-.07-.72-.21-1.05-.44-.28-.2-.6-.3-.95-.31-2.85-.03-5.66-.57-8.41-1.61-.88-.33-.97-.19-.27.43,7.01,6.18,15.1,11.05,24.26,14.61.37.15.73.14,1.09-.03l11.63-5.49c.33-.16.6-.42.76-.74.7-1.34,2.19-1.07,3.31-1.93.76-.59,1.53-1.19,2.3-1.82.73-.59,1.45-1.15,2.18-1.68Z"/>
  <path class="cls-1" d="m95.27,94.97l-.04-1.48c0-.36.17-.54.53-.53l5.99.02c.42,0,.63.21.63.63,0,3.25-.01,6.52-.04,9.81-.01,2.67,1.31,4.01,3.97,4,2.69,0,4.17-1.12,4.17-3.86,0-3.41,0-6.76-.01-10.05,0-.39.19-.58.57-.58l12.44.03c.43,0,.77.17,1.02.51l3.8,5.04c.22.29.63.35.92.13.05-.03.09-.08.12-.12l3.91-5.11c.27-.35.62-.53,1.07-.53l8.22.03c.48,0,.87.19,1.17.57l7.69,9.81c.28.36.43.8.42,1.26l-.11,5.83c-.01.6-.5,1.08-1.1,1.09l-14.01.11c-1.29,0-1.35-.27-.19-.84l6.49-3.18c1.43-.7,2.03-2.43,1.33-3.86-.11-.23-.26-.45-.43-.65l-5.12-5.82c-.13-.15-.36-.17-.5-.04-.01.01-.03.03-.04.04l-5.31,6.17c-.23.26-.34.56-.34.91v6.99c0,.17-.08.25-.25.25l-6.91-.04c-.15,0-.23-.08-.23-.23v-6.96c.01-.38-.11-.71-.35-.99l-6.54-7.55c-.46-.53-.68-.45-.67.26.05,3.35.74,9.82-1.26,12.26-1.38,1.68-3.07,2.69-5.07,3.03-5.75.97-16.47,1.03-16-7.73.04-.75.07-1.5.08-2.25.01-.55-.18-.64-.59-.26-3.54,3.3-8.77,2.67-13.5,2.66-.46,0-.69.23-.69.69l-.02,5.73c0,.13-.06.2-.19.2h-6.5c-.21,0-.31-.11-.31-.32v-16.81c.01-.38.2-.57.58-.57,5.2-.03,10.2,0,14.99.07,2.32.03,4.23.85,5.72,2.44.34.36.5.29.49-.21Zm-14.76,1.89v2.82c0,.3.24.54.54.54,0,0,0,0,.01,0h4.13c2.16-.02,3.9-.85,3.9-1.87v-.2c0-1.02-1.75-1.85-3.91-1.84,0,0,0,0-.01,0h-4.13c-.29.02-.53.26-.53.55Z"/>
  <circle class="cls-1" cx="138.46" cy="104.69" r="3.29"/>
</svg>